PathFileType	4	(X/Y/Z)	E:\MAC3D_DATA\2020_06_02_vinay\TPose1.trc																																																																
DataRate	CameraRate	NumFrames	NumMarkers	Units	OrigDataRate	OrigDataStartFrame	OrigNumFrames																																																												
1000	200	17	22	mm	200	309	822																																																												
Frame#	Time	RAsis			LAsis			RPsi			LPsi			RThigh1			RThigh2			RThigh3			RKneeOut			RKneeIn			LThigh1			LThigh2			LThigh3			LKneeOut			LKneeIn			MidAsis			MidPsi			MidPelvis			RHJC			LHJC			MidHJC			RKJC			LKJC		
		X1	Y1	Z1	X2	Y2	Z2	X3	Y3	Z3	X4	Y4	Z4	X5	Y5	Z5	X6	Y6	Z6	X7	Y7	Z7	X8	Y8	Z8	X9	Y9	Z9	X10	Y10	Z10	X11	Y11	Z11	X12	Y12	Z12	X13	Y13	Z13	X14	Y14	Z14	X15	Y15	Z15	X16	Y16	Z16	X17	Y17	Z17	X18	Y18	Z18	X19	Y19	Z19	X20	Y20	Z20	X21	Y21	Z21	X22	Y22	Z22
																																																																			
309	1.54	32.0712	973.151	228.131	36.8724	973.14	-14.9313	-163.415	1020.35	154.758	-163.313	1020.98	72.0574	-68.2306	742.361	299.712	-155.035	642.446	270.932	-40.0823	660.716	278.394	-114.65	507.608	278.673	-98.3646	493.045	163.337	-17.1723	654.568	-60.3671	-58.3349	747.898	-93.0511	-113.825	650.692	-81.0094	-92.3015	504.686	-70.0689	-91.6202	492.168	44.8286	34.47	973.15	106.60	-163.36	1020.66	113.41	-64.45	996.91	110.00	-48.72	904.34	209.59	-47.88	914.63	3.59	-48.30	909.48	106.59	-106.51	500.33	221.00	-91.96	498.43	-12.62
310	1.545	32.0849	973.146	228.121	36.8876	973.139	-14.9386	-163.394	1020.35	154.753	-163.295	1020.97	72.0529	-68.2201	742.359	299.704	-155.024	642.449	270.926	-40.0711	660.714	278.389	-114.641	507.608	278.669	-98.3591	493.042	163.332	-17.1546	654.568	-60.3838	-58.3198	747.897	-93.06	-113.812	650.691	-81.0176	-92.291	504.685	-70.0753	-91.6084	492.171	44.8216	34.49	973.14	106.59	-163.34	1020.66	113.40	-64.43	996.90	110.00	-48.70	904.33	209.58	-47.87	914.63	3.58	-48.28	909.48	106.58	-106.50	500.32	221.00	-91.95	498.43	-12.63
311	1.55	32.0987	973.141	228.11	36.9027	973.138	-14.9462	-163.374	1020.35	154.748	-163.277	1020.97	72.0476	-68.2084	742.356	299.695	-155.012	642.451	270.921	-40.0598	660.71	278.378	-114.631	507.607	278.665	-98.3526	493.04	163.326	-17.1364	654.568	-60.4011	-58.3043	747.896	-93.0695	-113.8	650.69	-81.0265	-92.2804	504.685	-70.0821	-91.5963	492.173	44.8134	34.50	973.14	106.58	-163.33	1020.66	113.40	-64.41	996.90	109.99	-48.68	904.33	209.57	-47.85	914.63	3.57	-48.27	909.48	106.57	-106.49	500.32	221.00	-91.94	498.43	-12.63
312	1.555	32.1127	973.136	228.098	36.9178	973.136	-14.9541	-163.355	1020.35	154.743	-163.259	1020.97	72.0415	-68.1955	742.352	299.687	-155	642.452	270.915	-40.0482	660.706	278.362	-114.621	507.606	278.66	-98.3452	493.038	163.32	-17.1179	654.568	-60.4189	-58.2885	747.895	-93.0795	-113.787	650.689	-81.036	-92.2697	504.684	-70.0893	-91.5838	492.176	44.8045	34.52	973.14	106.57	-163.31	1020.66	113.39	-64.40	996.90	109.98	-48.67	904.32	209.56	-47.84	914.63	3.56	-48.25	909.47	106.56	-106.48	500.32	220.99	-91.93	498.43	-12.64
313	1.56	32.1269	973.131	228.086	36.9329	973.135	-14.9622	-163.336	1020.34	154.737	-163.242	1020.97	72.0345	-68.1816	742.347	299.679	-154.986	642.452	270.91	-40.036	660.7	278.343	-114.611	507.605	278.655	-98.3371	493.036	163.313	-17.0991	654.568	-60.4369	-58.2725	747.894	-93.09	-113.773	650.688	-81.046	-92.2588	504.683	-70.0966	-91.5709	492.179	44.7949	34.53	973.13	106.56	-163.29	1020.65	113.39	-64.38	996.89	109.97	-48.65	904.32	209.55	-47.82	914.62	3.55	-48.24	909.47	106.55	-106.47	500.32	220.98	-91.91	498.43	-12.65
314	1.565	32.1414	973.126	228.073	36.9479	973.134	-14.9704	-163.318	1020.34	154.73	-163.225	1020.97	72.0267	-68.1668	742.341	299.671	-154.972	642.452	270.906	-40.0233	660.693	278.322	-114.599	507.604	278.649	-98.3284	493.034	163.306	-17.0802	654.568	-60.4552	-58.2562	747.892	-93.1009	-113.759	650.686	-81.0562	-92.2475	504.682	-70.1042	-91.5577	492.181	44.7848	34.54	973.13	106.55	-163.27	1020.65	113.38	-64.36	996.89	109.96	-48.64	904.31	209.54	-47.81	914.63	3.54	-48.22	909.47	106.54	-106.46	500.32	220.98	-91.90	498.43	-12.66
315	1.57	32.156	973.122	228.06	36.963	973.132	-14.9786	-163.3	1020.34	154.722	-163.208	1020.96	72.0182	-68.1512	742.335	299.663	-154.957	642.452	270.901	-40.0099	660.685	278.299	-114.587	507.603	278.644	-98.3192	493.031	163.298	-17.0613	654.568	-60.4735	-58.2399	747.891	-93.1122	-113.745	650.684	-81.0667	-92.236	504.681	-70.1118	-91.544	492.184	44.7745	34.56	973.13	106.54	-163.25	1020.65	113.37	-64.35	996.89	109.96	-48.62	904.31	209.53	-47.79	914.62	3.53	-48.21	909.47	106.53	-106.45	500.32	220.97	-91.89	498.43	-12.67
316	1.575	32.1708	973.117	228.047	36.9781	973.131	-14.9868	-163.283	1020.33	154.714	-163.192	1020.96	72.0089	-68.1349	742.329	299.655	-154.942	642.451	270.896	-39.9957	660.677	278.276	-114.575	507.602	278.638	-98.3094	493.029	163.29	-17.0427	654.568	-60.4916	-58.2235	747.889	-93.1237	-113.731	650.682	-81.0771	-92.2242	504.679	-70.1195	-91.5301	492.186	44.7642	34.57	973.12	106.53	-163.24	1020.64	113.36	-64.33	996.88	109.95	-48.61	904.30	209.52	-47.78	914.62	3.52	-48.19	909.46	106.52	-106.44	500.32	220.96	-91.88	498.43	-12.68
317	1.58	32.1856	973.113	228.034	36.9931	973.129	-14.9949	-163.267	1020.33	154.705	-163.176	1020.96	71.9991	-68.1184	742.322	299.648	-154.926	642.45	270.891	-39.9807	660.669	278.254	-114.562	507.601	278.632	-98.299	493.026	163.283	-17.0246	654.567	-60.5093	-58.2072	747.887	-93.1354	-113.717	650.679	-81.0875	-92.2119	504.677	-70.1271	-91.516	492.188	44.7542	34.59	973.12	106.52	-163.22	1020.64	113.35	-64.32	996.88	109.94	-48.59	904.30	209.51	-47.76	914.62	3.51	-48.18	909.46	106.51	-106.43	500.31	220.96	-91.86	498.43	-12.69
318	1.585	32.2002	973.108	228.021	37.0079	973.127	-15.0027	-163.251	1020.32	154.695	-163.161	1020.95	71.9887	-68.1016	742.316	299.641	-154.911	642.449	270.887	-39.9649	660.661	278.233	-114.548	507.601	278.626	-98.2881	493.024	163.275	-17.0073	654.567	-60.526	-58.191	747.885	-93.1471	-113.702	650.675	-81.0976	-92.1994	504.675	-70.1346	-91.5017	492.189	44.7447	34.60	973.12	106.51	-163.21	1020.63	113.34	-64.30	996.88	109.93	-48.57	904.29	209.49	-47.75	914.62	3.50	-48.16	909.45	106.50	-106.42	500.31	220.95	-91.85	498.43	-12.69
319	1.59	32.2145	973.104	228.008	37.0227	973.125	-15.0101	-163.236	1020.32	154.685	-163.146	1020.95	71.9778	-68.0849	742.31	299.635	-154.894	642.447	270.881	-39.9487	660.653	278.214	-114.534	507.6	278.621	-98.2766	493.021	163.267	-16.9907	654.566	-60.5418	-58.175	747.882	-93.1588	-113.688	650.672	-81.1074	-92.1866	504.673	-70.1418	-91.4874	492.191	44.7358	34.62	973.11	106.50	-163.19	1020.63	113.33	-64.29	996.87	109.92	-48.56	904.29	209.48	-47.73	914.62	3.49	-48.15	909.45	106.49	-106.41	500.31	220.94	-91.84	498.43	-12.70
320	1.595	32.2284	973.1	227.995	37.0374	973.123	-15.0173	-163.223	1020.32	154.674	-163.131	1020.95	71.9664	-68.0685	742.304	299.629	-154.878	642.445	270.876	-39.9325	660.646	278.197	-114.519	507.599	278.615	-98.2642	493.018	163.259	-16.975	654.565	-60.5565	-58.1591	747.88	-93.1702	-113.674	650.668	-81.1168	-92.1736	504.67	-70.1487	-91.473	492.191	44.7275	34.63	973.11	106.49	-163.18	1020.63	113.32	-64.27	996.87	109.90	-48.55	904.29	209.47	-47.72	914.61	3.48	-48.13	909.45	106.47	-106.39	500.31	220.94	-91.82	498.43	-12.71
321	1.6	32.2419	973.096	227.983	37.052	973.121	-15.0242	-163.21	1020.31	154.663	-163.117	1020.94	71.9543	-68.0524	742.298	299.622	-154.862	642.443	270.871	-39.9164	660.639	278.183	-114.504	507.598	278.61	-98.2508	493.015	163.251	-16.96	654.564	-60.5703	-58.1433	747.877	-93.1814	-113.66	650.665	-81.1257	-92.1605	504.667	-70.1553	-91.4587	492.192	44.7199	34.65	973.11	106.48	-163.16	1020.63	113.31	-64.26	996.87	109.89	-48.53	904.28	209.46	-47.70	914.61	3.47	-48.12	909.45	106.46	-106.38	500.31	220.93	-91.81	498.43	-12.72
322	1.605	32.2551	973.092	227.971	37.0665	973.118	-15.0307	-163.197	1020.31	154.65	-163.103	1020.94	71.9417	-68.037	742.292	299.616	-154.846	642.441	270.865	-39.9007	660.633	278.171	-114.488	507.597	278.604	-98.2363	493.012	163.243	-16.9456	654.563	-60.5833	-58.1277	747.874	-93.1922	-113.646	650.661	-81.134	-92.1472	504.663	-70.1616	-91.4446	492.193	44.7129	34.66	973.11	106.47	-163.15	1020.63	113.30	-64.24	996.87	109.88	-48.52	904.28	209.45	-47.69	914.61	3.46	-48.11	909.44	106.45	-106.36	500.30	220.92	-91.80	498.43	-12.72
323	1.61	32.2678	973.088	227.96	37.081	973.115	-15.0371	-163.186	1020.3	154.637	-163.089	1020.93	71.9283	-68.0222	742.287	299.611	-154.83	642.439	270.859	-39.8851	660.628	278.164	-114.472	507.596	278.599	-98.2206	493.01	163.235	-16.9317	654.562	-60.5954	-58.1121	747.871	-93.2025	-113.632	650.657	-81.142	-92.1339	504.66	-70.1675	-91.4308	492.193	44.7063	34.67	973.10	106.46	-163.14	1020.62	113.28	-64.23	996.86	109.87	-48.51	904.27	209.44	-47.67	914.60	3.45	-48.09	909.44	106.44	-106.35	500.30	220.92	-91.78	498.43	-12.73
324	1.615	32.2803	973.085	227.949	37.0955	973.112	-15.0432	-163.176	1020.3	154.624	-163.075	1020.93	71.9142	-68.0083	742.282	299.605	-154.814	642.437	270.853	-39.8696	660.625	278.162	-114.455	507.595	278.594	-98.2037	493.008	163.228	-16.9182	654.56	-60.6067	-58.0965	747.868	-93.2125	-113.618	650.653	-81.1495	-92.1205	504.657	-70.1731	-91.4174	492.193	44.7001	34.69	973.10	106.45	-163.13	1020.62	113.27	-64.22	996.86	109.86	-48.50	904.27	209.43	-47.66	914.60	3.44	-48.08	909.44	106.43	-106.33	500.30	220.91	-91.77	498.42	-12.74
325	1.62	32.2925	973.082	227.939	37.11	973.109	-15.0491	-163.166	1020.3	154.609	-163.061	1020.92	71.8993	-67.9952	742.277	299.599	-154.798	642.434	270.846	-39.8539	660.623	278.166	-114.438	507.595	278.589	-98.1855	493.006	163.22	-16.905	654.558	-60.6171	-58.0808	747.864	-93.2219	-113.604	650.649	-81.1567	-92.107	504.653	-70.1785	-91.4044	492.193	44.6942	34.70	973.10	106.44	-163.11	1020.61	113.25	-64.21	996.85	109.85	-48.48	904.27	209.42	-47.64	914.60	3.42	-48.06	909.43	106.42	-106.31	500.30	220.90	-91.76	498.42	-12.74
